<svg xmlns="http://www.w3.org/2000/svg" xmlns:xlink="http://www.w3.org/1999/xlink" width="160" zoomAndPan="magnify" viewBox="0 0 120 44.999999" height="60" preserveAspectRatio="xMidYMid meet" version="1.0"><defs><g/><clipPath id="8b79ce7c00"><path d="M 45.277344 17 L 53 17 L 53 22 L 45.277344 22 Z M 45.277344 17 " clip-rule="nonzero"/></clipPath><clipPath id="735d8fb947"><path d="M 45.277344 3.65625 L 72.277344 3.65625 L 72.277344 31 L 45.277344 31 Z M 45.277344 3.65625 " clip-rule="nonzero"/></clipPath><clipPath id="61a9967be1"><path d="M 65 23 L 72.277344 23 L 72.277344 28 L 65 28 Z M 65 23 " clip-rule="nonzero"/></clipPath><clipPath id="68348ca130"><path d="M 45.277344 14 L 72.277344 14 L 72.277344 41.15625 L 45.277344 41.15625 Z M 45.277344 14 " clip-rule="nonzero"/></clipPath></defs><g fill="#000000" fill-opacity="1"><g transform="translate(10.188926, 34.395491)"><g><path d="M 16.265625 -6.3125 C 16.265625 -4.257812 15.523438 -2.640625 14.046875 -1.453125 C 12.578125 -0.273438 10.523438 0.3125 7.890625 0.3125 C 5.472656 0.3125 3.328125 -0.144531 1.453125 -1.0625 L 1.453125 -5.53125 C 2.992188 -4.84375 4.296875 -4.359375 5.359375 -4.078125 C 6.421875 -3.804688 7.390625 -3.671875 8.265625 -3.671875 C 9.328125 -3.671875 10.140625 -3.867188 10.703125 -4.265625 C 11.265625 -4.671875 11.546875 -5.273438 11.546875 -6.078125 C 11.546875 -6.523438 11.421875 -6.921875 11.171875 -7.265625 C 10.921875 -7.609375 10.554688 -7.941406 10.078125 -8.265625 C 9.597656 -8.585938 8.617188 -9.101562 7.140625 -9.8125 C 5.742188 -10.457031 4.695312 -11.082031 4 -11.6875 C 3.3125 -12.289062 2.757812 -12.988281 2.34375 -13.78125 C 1.925781 -14.582031 1.71875 -15.515625 1.71875 -16.578125 C 1.71875 -18.585938 2.398438 -20.164062 3.765625 -21.3125 C 5.128906 -22.46875 7.015625 -23.046875 9.421875 -23.046875 C 10.597656 -23.046875 11.722656 -22.90625 12.796875 -22.625 C 13.867188 -22.34375 14.988281 -21.953125 16.15625 -21.453125 L 14.609375 -17.703125 C 13.398438 -18.203125 12.394531 -18.546875 11.59375 -18.734375 C 10.800781 -18.929688 10.023438 -19.03125 9.265625 -19.03125 C 8.347656 -19.03125 7.644531 -18.816406 7.15625 -18.390625 C 6.675781 -17.972656 6.4375 -17.421875 6.4375 -16.734375 C 6.4375 -16.304688 6.535156 -15.9375 6.734375 -15.625 C 6.929688 -15.3125 7.242188 -15.003906 7.671875 -14.703125 C 8.097656 -14.410156 9.113281 -13.878906 10.71875 -13.109375 C 12.84375 -12.097656 14.296875 -11.082031 15.078125 -10.0625 C 15.867188 -9.039062 16.265625 -7.789062 16.265625 -6.3125 Z M 16.265625 -6.3125 "/></g></g></g><g fill="#000000" fill-opacity="1"><g transform="translate(27.718348, 34.395491)"><g><path d="M 11.625 0 L 6.8125 0 L 6.8125 -18.71875 L 0.640625 -18.71875 L 0.640625 -22.71875 L 17.796875 -22.71875 L 17.796875 -18.71875 L 11.625 -18.71875 Z M 11.625 0 "/></g></g></g><g fill="#000000" fill-opacity="1"><g transform="translate(46.158135, 34.395491)"><g/></g></g><g fill="#000000" fill-opacity="1"><g transform="translate(54.425557, 34.395491)"><g/></g></g><g fill="#000000" fill-opacity="1"><g transform="translate(62.692979, 34.395491)"><g/></g></g><g fill="#000000" fill-opacity="1"><g transform="translate(70.965501, 34.395491)"><g><path d="M 7.671875 -12.640625 L 9.234375 -12.640625 C 10.753906 -12.640625 11.875 -12.890625 12.59375 -13.390625 C 13.320312 -13.898438 13.6875 -14.703125 13.6875 -15.796875 C 13.6875 -16.867188 13.316406 -17.632812 12.578125 -18.09375 C 11.835938 -18.550781 10.691406 -18.78125 9.140625 -18.78125 L 7.671875 -18.78125 Z M 7.671875 -8.71875 L 7.671875 0 L 2.859375 0 L 2.859375 -22.71875 L 9.484375 -22.71875 C 12.566406 -22.71875 14.847656 -22.15625 16.328125 -21.03125 C 17.816406 -19.90625 18.5625 -18.203125 18.5625 -15.921875 C 18.5625 -14.578125 18.191406 -13.382812 17.453125 -12.34375 C 16.710938 -11.300781 15.671875 -10.488281 14.328125 -9.90625 C 17.742188 -4.789062 19.972656 -1.488281 21.015625 0 L 15.671875 0 L 10.234375 -8.71875 Z M 7.671875 -8.71875 "/></g></g></g><g fill="#000000" fill-opacity="1"><g transform="translate(91.975942, 34.395491)"><g><path d="M 15.9375 0 L 2.859375 0 L 2.859375 -22.71875 L 15.9375 -22.71875 L 15.9375 -18.78125 L 7.671875 -18.78125 L 7.671875 -13.78125 L 15.375 -13.78125 L 15.375 -9.84375 L 7.671875 -9.84375 L 7.671875 -3.984375 L 15.9375 -3.984375 Z M 15.9375 0 "/></g></g></g><g clip-path="url(#8b79ce7c00)"><path fill="#3b7efd" d="M 50.148438 17.1875 L 45.175781 17.1875 L 49.714844 21.726562 L 52.203125 19.238281 L 50.148438 17.1875 " fill-opacity="1" fill-rule="nonzero"/></g><g clip-path="url(#735d8fb947)"><path fill="#fcd753" d="M 58.707031 30.71875 L 72.242188 17.1875 L 58.707031 3.652344 L 45.175781 17.1875 L 50.148438 17.1875 L 58.707031 8.625 L 67.269531 17.1875 L 58.707031 25.746094 L 57.167969 24.203125 L 56.238281 23.273438 L 51.820312 27.691406 L 54.160156 26.167969 L 58.707031 30.71875 " fill-opacity="1" fill-rule="nonzero"/></g><g clip-path="url(#61a9967be1)"><path fill="#fcd753" d="M 72.242188 27.8125 L 67.703125 23.273438 L 65.214844 25.761719 L 67.269531 27.8125 L 72.242188 27.8125 " fill-opacity="1" fill-rule="nonzero"/></g><g clip-path="url(#68348ca130)"><path fill="#3b7efd" d="M 72.242188 27.8125 L 67.269531 27.8125 L 58.707031 36.375 L 50.148438 27.8125 L 58.707031 19.253906 L 61.179688 21.722656 L 65.597656 17.308594 L 63.246094 18.816406 L 58.707031 14.28125 L 45.175781 27.8125 L 58.707031 41.34375 L 72.242188 27.8125 " fill-opacity="1" fill-rule="nonzero"/></g></svg>